<mxfile host="Electron" agent="Mozilla/5.0 (Windows NT 10.0; Win64; x64) AppleWebKit/537.36 (KHTML, like Gecko) draw.io/27.0.9 Chrome/134.0.6998.205 Electron/35.4.0 Safari/537.36" version="27.0.9">
  <diagram name="Page-1" id="2jl6VVL9ALjSCmf7XZdh">
    <mxGraphModel dx="2405" dy="1034" grid="1" gridSize="10" guides="1" tooltips="1" connect="1" arrows="1" fold="1" page="1" pageScale="1" pageWidth="850" pageHeight="1100" math="0" shadow="0">
      <root>
        <mxCell id="0" />
        <mxCell id="1" parent="0" />
        <mxCell id="wj5eM7WHxlM9F-lFhPUY-1" value="&lt;font style=&quot;font-size: 15px;&quot;&gt;Employee&lt;/font&gt;" style="rounded=1;whiteSpace=wrap;html=1;strokeWidth=2;" vertex="1" parent="1">
          <mxGeometry x="135" y="210" width="160" height="40" as="geometry" />
        </mxCell>
        <mxCell id="wj5eM7WHxlM9F-lFhPUY-4" value="&lt;font style=&quot;font-size: 15px;&quot;&gt;&lt;u&gt;SSN&lt;/u&gt;&lt;/font&gt;" style="ellipse;whiteSpace=wrap;html=1;strokeWidth=2;" vertex="1" parent="1">
          <mxGeometry x="55" y="150" width="70" height="40" as="geometry" />
        </mxCell>
        <mxCell id="wj5eM7WHxlM9F-lFhPUY-7" value="&lt;font style=&quot;font-size: 15px;&quot;&gt;Name&lt;/font&gt;" style="ellipse;whiteSpace=wrap;html=1;strokeWidth=2;" vertex="1" parent="1">
          <mxGeometry x="130" y="130" width="70" height="40" as="geometry" />
        </mxCell>
        <mxCell id="wj5eM7WHxlM9F-lFhPUY-8" style="edgeStyle=orthogonalEdgeStyle;rounded=0;orthogonalLoop=1;jettySize=auto;html=1;entryX=0.213;entryY=0.05;entryDx=0;entryDy=0;entryPerimeter=0;curved=1;endArrow=none;startFill=0;" edge="1" parent="1" source="wj5eM7WHxlM9F-lFhPUY-7" target="wj5eM7WHxlM9F-lFhPUY-1">
          <mxGeometry relative="1" as="geometry" />
        </mxCell>
        <mxCell id="wj5eM7WHxlM9F-lFhPUY-9" value="&lt;font style=&quot;font-size: 15px;&quot;&gt;Gender&lt;/font&gt;" style="ellipse;whiteSpace=wrap;html=1;strokeWidth=2;" vertex="1" parent="1">
          <mxGeometry x="205" y="120" width="70" height="40" as="geometry" />
        </mxCell>
        <mxCell id="wj5eM7WHxlM9F-lFhPUY-10" style="edgeStyle=orthogonalEdgeStyle;rounded=0;orthogonalLoop=1;jettySize=auto;html=1;entryX=0.438;entryY=0.125;entryDx=0;entryDy=0;entryPerimeter=0;endArrow=none;startFill=0;curved=1;" edge="1" parent="1" source="wj5eM7WHxlM9F-lFhPUY-9" target="wj5eM7WHxlM9F-lFhPUY-1">
          <mxGeometry relative="1" as="geometry" />
        </mxCell>
        <mxCell id="wj5eM7WHxlM9F-lFhPUY-11" value="&lt;font style=&quot;font-size: 15px;&quot;&gt;DOB&lt;/font&gt;" style="ellipse;whiteSpace=wrap;html=1;strokeWidth=2;" vertex="1" parent="1">
          <mxGeometry x="265" y="150" width="70" height="40" as="geometry" />
        </mxCell>
        <mxCell id="wj5eM7WHxlM9F-lFhPUY-15" style="edgeStyle=orthogonalEdgeStyle;rounded=0;orthogonalLoop=1;jettySize=auto;html=1;entryX=1;entryY=0;entryDx=0;entryDy=0;endArrow=none;startFill=0;curved=1;exitX=0.5;exitY=1;exitDx=0;exitDy=0;" edge="1" parent="1" source="wj5eM7WHxlM9F-lFhPUY-13" target="wj5eM7WHxlM9F-lFhPUY-7">
          <mxGeometry relative="1" as="geometry">
            <mxPoint x="185" y="110" as="sourcePoint" />
            <Array as="points">
              <mxPoint x="155" y="100" />
              <mxPoint x="189" y="100" />
            </Array>
          </mxGeometry>
        </mxCell>
        <mxCell id="wj5eM7WHxlM9F-lFhPUY-13" value="&lt;font style=&quot;font-size: 15px;&quot;&gt;Fname&lt;/font&gt;" style="ellipse;whiteSpace=wrap;html=1;strokeWidth=2;" vertex="1" parent="1">
          <mxGeometry x="145" y="70" width="60" height="40" as="geometry" />
        </mxCell>
        <mxCell id="wj5eM7WHxlM9F-lFhPUY-16" style="edgeStyle=orthogonalEdgeStyle;rounded=0;orthogonalLoop=1;jettySize=auto;html=1;entryX=0;entryY=0;entryDx=0;entryDy=0;curved=1;endArrow=none;endFill=1;startFill=0;exitX=0.5;exitY=1;exitDx=0;exitDy=0;" edge="1" parent="1" source="wj5eM7WHxlM9F-lFhPUY-14" target="wj5eM7WHxlM9F-lFhPUY-7">
          <mxGeometry relative="1" as="geometry">
            <mxPoint x="115" y="110" as="sourcePoint" />
          </mxGeometry>
        </mxCell>
        <mxCell id="wj5eM7WHxlM9F-lFhPUY-14" value="&lt;font style=&quot;font-size: 15px;&quot;&gt;Lname&lt;/font&gt;" style="ellipse;whiteSpace=wrap;html=1;strokeWidth=2;" vertex="1" parent="1">
          <mxGeometry x="75" y="70" width="60" height="40" as="geometry" />
        </mxCell>
        <mxCell id="wj5eM7WHxlM9F-lFhPUY-18" style="edgeStyle=orthogonalEdgeStyle;rounded=0;orthogonalLoop=1;jettySize=auto;html=1;entryX=0.8;entryY=0.025;entryDx=0;entryDy=0;entryPerimeter=0;endArrow=none;startFill=0;curved=1;" edge="1" parent="1" source="wj5eM7WHxlM9F-lFhPUY-11" target="wj5eM7WHxlM9F-lFhPUY-1">
          <mxGeometry relative="1" as="geometry" />
        </mxCell>
        <mxCell id="wj5eM7WHxlM9F-lFhPUY-19" style="edgeStyle=orthogonalEdgeStyle;rounded=0;orthogonalLoop=1;jettySize=auto;html=1;entryX=0.069;entryY=0.025;entryDx=0;entryDy=0;entryPerimeter=0;exitX=0.5;exitY=1;exitDx=0;exitDy=0;endArrow=none;startFill=0;curved=1;" edge="1" parent="1" source="wj5eM7WHxlM9F-lFhPUY-4" target="wj5eM7WHxlM9F-lFhPUY-1">
          <mxGeometry relative="1" as="geometry">
            <Array as="points">
              <mxPoint x="80" y="200" />
              <mxPoint x="146" y="200" />
            </Array>
          </mxGeometry>
        </mxCell>
        <mxCell id="wj5eM7WHxlM9F-lFhPUY-21" value="&lt;font style=&quot;font-size: 15px;&quot;&gt;Department&lt;/font&gt;" style="rounded=1;whiteSpace=wrap;html=1;strokeWidth=2;" vertex="1" parent="1">
          <mxGeometry x="525" y="210" width="160" height="40" as="geometry" />
        </mxCell>
        <mxCell id="wj5eM7WHxlM9F-lFhPUY-22" value="&lt;font style=&quot;font-size: 15px;&quot;&gt;&lt;u&gt;Dnum&lt;/u&gt;&lt;/font&gt;" style="ellipse;whiteSpace=wrap;html=1;strokeWidth=2;" vertex="1" parent="1">
          <mxGeometry x="475" y="140" width="70" height="40" as="geometry" />
        </mxCell>
        <mxCell id="wj5eM7WHxlM9F-lFhPUY-23" value="&lt;font style=&quot;font-size: 15px;&quot;&gt;Dname&lt;/font&gt;" style="ellipse;whiteSpace=wrap;html=1;strokeWidth=2;" vertex="1" parent="1">
          <mxGeometry x="555" y="130" width="70" height="40" as="geometry" />
        </mxCell>
        <mxCell id="wj5eM7WHxlM9F-lFhPUY-24" style="edgeStyle=orthogonalEdgeStyle;rounded=0;orthogonalLoop=1;jettySize=auto;html=1;entryX=0.45;entryY=0.05;entryDx=0;entryDy=0;entryPerimeter=0;curved=1;endArrow=none;startFill=0;" edge="1" parent="1" source="wj5eM7WHxlM9F-lFhPUY-23" target="wj5eM7WHxlM9F-lFhPUY-21">
          <mxGeometry relative="1" as="geometry" />
        </mxCell>
        <mxCell id="wj5eM7WHxlM9F-lFhPUY-26" style="edgeStyle=orthogonalEdgeStyle;rounded=0;orthogonalLoop=1;jettySize=auto;html=1;entryX=0.75;entryY=0;entryDx=0;entryDy=0;endArrow=none;startFill=0;curved=1;exitX=0.5;exitY=1;exitDx=0;exitDy=0;" edge="1" parent="1" source="wj5eM7WHxlM9F-lFhPUY-36" target="wj5eM7WHxlM9F-lFhPUY-21">
          <mxGeometry relative="1" as="geometry">
            <mxPoint x="630" y="160" as="sourcePoint" />
          </mxGeometry>
        </mxCell>
        <mxCell id="wj5eM7WHxlM9F-lFhPUY-33" style="edgeStyle=orthogonalEdgeStyle;rounded=0;orthogonalLoop=1;jettySize=auto;html=1;entryX=0.25;entryY=0;entryDx=0;entryDy=0;exitX=0.5;exitY=1;exitDx=0;exitDy=0;endArrow=none;startFill=0;curved=1;" edge="1" parent="1" source="wj5eM7WHxlM9F-lFhPUY-22" target="wj5eM7WHxlM9F-lFhPUY-21">
          <mxGeometry relative="1" as="geometry">
            <Array as="points">
              <mxPoint x="510" y="200" />
              <mxPoint x="565" y="200" />
            </Array>
          </mxGeometry>
        </mxCell>
        <mxCell id="wj5eM7WHxlM9F-lFhPUY-36" value="&lt;font style=&quot;font-size: 15px;&quot;&gt;Locations&lt;/font&gt;" style="ellipse;shape=doubleEllipse;margin=3;whiteSpace=wrap;html=1;align=center;strokeWidth=2;" vertex="1" parent="1">
          <mxGeometry x="635" y="130" width="100" height="40" as="geometry" />
        </mxCell>
        <mxCell id="wj5eM7WHxlM9F-lFhPUY-37" value="&lt;font style=&quot;font-size: 15px;&quot;&gt;Project&lt;/font&gt;" style="rounded=1;whiteSpace=wrap;html=1;strokeWidth=2;" vertex="1" parent="1">
          <mxGeometry x="360" y="585" width="160" height="40" as="geometry" />
        </mxCell>
        <mxCell id="wj5eM7WHxlM9F-lFhPUY-38" value="&lt;font style=&quot;font-size: 15px;&quot;&gt;&lt;u&gt;Pnum&lt;/u&gt;&lt;/font&gt;" style="ellipse;whiteSpace=wrap;html=1;strokeWidth=2;" vertex="1" parent="1">
          <mxGeometry x="285" y="515" width="65" height="40" as="geometry" />
        </mxCell>
        <mxCell id="wj5eM7WHxlM9F-lFhPUY-39" value="&lt;font style=&quot;font-size: 15px;&quot;&gt;Pname&lt;/font&gt;" style="ellipse;whiteSpace=wrap;html=1;strokeWidth=2;" vertex="1" parent="1">
          <mxGeometry x="355" y="505" width="65" height="40" as="geometry" />
        </mxCell>
        <mxCell id="wj5eM7WHxlM9F-lFhPUY-40" style="edgeStyle=orthogonalEdgeStyle;rounded=0;orthogonalLoop=1;jettySize=auto;html=1;entryX=0.213;entryY=0.05;entryDx=0;entryDy=0;entryPerimeter=0;curved=1;endArrow=none;startFill=0;" edge="1" parent="1" source="wj5eM7WHxlM9F-lFhPUY-39" target="wj5eM7WHxlM9F-lFhPUY-37">
          <mxGeometry relative="1" as="geometry" />
        </mxCell>
        <mxCell id="wj5eM7WHxlM9F-lFhPUY-41" value="&lt;font style=&quot;font-size: 15px;&quot;&gt;Location&lt;/font&gt;" style="ellipse;whiteSpace=wrap;html=1;strokeWidth=2;" vertex="1" parent="1">
          <mxGeometry x="430" y="495" width="70" height="40" as="geometry" />
        </mxCell>
        <mxCell id="wj5eM7WHxlM9F-lFhPUY-42" style="edgeStyle=orthogonalEdgeStyle;rounded=0;orthogonalLoop=1;jettySize=auto;html=1;entryX=0.438;entryY=0.125;entryDx=0;entryDy=0;entryPerimeter=0;endArrow=none;startFill=0;curved=1;" edge="1" parent="1" source="wj5eM7WHxlM9F-lFhPUY-41" target="wj5eM7WHxlM9F-lFhPUY-37">
          <mxGeometry relative="1" as="geometry" />
        </mxCell>
        <mxCell id="wj5eM7WHxlM9F-lFhPUY-46" style="edgeStyle=orthogonalEdgeStyle;rounded=0;orthogonalLoop=1;jettySize=auto;html=1;entryX=0.8;entryY=0.025;entryDx=0;entryDy=0;entryPerimeter=0;endArrow=none;startFill=0;curved=1;" edge="1" parent="1" source="wj5eM7WHxlM9F-lFhPUY-48" target="wj5eM7WHxlM9F-lFhPUY-37">
          <mxGeometry relative="1" as="geometry">
            <mxPoint x="525" y="565" as="sourcePoint" />
          </mxGeometry>
        </mxCell>
        <mxCell id="wj5eM7WHxlM9F-lFhPUY-48" value="&lt;font style=&quot;font-size: 15px;&quot;&gt;City&lt;/font&gt;" style="ellipse;whiteSpace=wrap;html=1;align=center;dashed=1;strokeWidth=2;" vertex="1" parent="1">
          <mxGeometry x="500" y="515" width="80" height="40" as="geometry" />
        </mxCell>
        <mxCell id="wj5eM7WHxlM9F-lFhPUY-49" style="edgeStyle=orthogonalEdgeStyle;rounded=0;orthogonalLoop=1;jettySize=auto;html=1;entryX=0.044;entryY=0;entryDx=0;entryDy=0;entryPerimeter=0;curved=1;endArrow=none;startFill=0;exitX=0.5;exitY=1;exitDx=0;exitDy=0;" edge="1" parent="1" source="wj5eM7WHxlM9F-lFhPUY-38" target="wj5eM7WHxlM9F-lFhPUY-37">
          <mxGeometry relative="1" as="geometry" />
        </mxCell>
        <mxCell id="wj5eM7WHxlM9F-lFhPUY-51" value="&lt;font style=&quot;font-size: 15px; color: rgb(255, 51, 51);&quot;&gt;&lt;u&gt;Dname&lt;/u&gt;&lt;/font&gt;" style="ellipse;whiteSpace=wrap;html=1;strokeWidth=2;" vertex="1" parent="1">
          <mxGeometry x="-295" y="150" width="65" height="40" as="geometry" />
        </mxCell>
        <mxCell id="wj5eM7WHxlM9F-lFhPUY-52" value="&lt;font style=&quot;font-size: 15px;&quot;&gt;Gender&lt;/font&gt;" style="ellipse;whiteSpace=wrap;html=1;strokeWidth=2;" vertex="1" parent="1">
          <mxGeometry x="-225" y="130" width="65" height="40" as="geometry" />
        </mxCell>
        <mxCell id="wj5eM7WHxlM9F-lFhPUY-53" style="edgeStyle=orthogonalEdgeStyle;rounded=0;orthogonalLoop=1;jettySize=auto;html=1;entryX=0.595;entryY=-0.09;entryDx=0;entryDy=0;entryPerimeter=0;curved=1;endArrow=none;startFill=0;" edge="1" parent="1" source="wj5eM7WHxlM9F-lFhPUY-52" target="wj5eM7WHxlM9F-lFhPUY-117">
          <mxGeometry relative="1" as="geometry">
            <mxPoint x="-185.91999999999985" y="210" as="targetPoint" />
          </mxGeometry>
        </mxCell>
        <mxCell id="wj5eM7WHxlM9F-lFhPUY-54" value="&lt;font style=&quot;font-size: 15px;&quot;&gt;BOD&lt;/font&gt;" style="ellipse;whiteSpace=wrap;html=1;strokeWidth=2;" vertex="1" parent="1">
          <mxGeometry x="-160" y="150" width="70" height="40" as="geometry" />
        </mxCell>
        <mxCell id="wj5eM7WHxlM9F-lFhPUY-55" style="edgeStyle=orthogonalEdgeStyle;rounded=0;orthogonalLoop=1;jettySize=auto;html=1;entryX=0.859;entryY=0.057;entryDx=0;entryDy=0;entryPerimeter=0;endArrow=none;startFill=0;curved=1;" edge="1" parent="1" source="wj5eM7WHxlM9F-lFhPUY-54" target="wj5eM7WHxlM9F-lFhPUY-117">
          <mxGeometry relative="1" as="geometry">
            <mxPoint x="-129.92000000000007" y="211" as="targetPoint" />
          </mxGeometry>
        </mxCell>
        <mxCell id="wj5eM7WHxlM9F-lFhPUY-58" style="edgeStyle=orthogonalEdgeStyle;rounded=0;orthogonalLoop=1;jettySize=auto;html=1;entryX=0.308;entryY=0.116;entryDx=0;entryDy=0;entryPerimeter=0;curved=1;endArrow=none;startFill=0;exitX=0.5;exitY=1;exitDx=0;exitDy=0;" edge="1" parent="1" source="wj5eM7WHxlM9F-lFhPUY-51" target="wj5eM7WHxlM9F-lFhPUY-117">
          <mxGeometry relative="1" as="geometry">
            <mxPoint x="-235.0400000000002" y="211" as="targetPoint" />
            <Array as="points">
              <mxPoint x="-263" y="200" />
              <mxPoint x="-223" y="200" />
            </Array>
          </mxGeometry>
        </mxCell>
        <mxCell id="wj5eM7WHxlM9F-lFhPUY-60" style="edgeStyle=orthogonalEdgeStyle;rounded=0;orthogonalLoop=1;jettySize=auto;html=1;entryX=0;entryY=0.5;entryDx=0;entryDy=0;" edge="1" parent="1" source="wj5eM7WHxlM9F-lFhPUY-59" target="wj5eM7WHxlM9F-lFhPUY-1">
          <mxGeometry relative="1" as="geometry" />
        </mxCell>
        <mxCell id="wj5eM7WHxlM9F-lFhPUY-63" value="&lt;font style=&quot;font-size: 13px;&quot;&gt;&lt;b&gt;1&lt;/b&gt;&lt;/font&gt;" style="edgeLabel;html=1;align=center;verticalAlign=middle;resizable=0;points=[];" vertex="1" connectable="0" parent="wj5eM7WHxlM9F-lFhPUY-60">
          <mxGeometry x="0.1584" y="-2" relative="1" as="geometry">
            <mxPoint y="1" as="offset" />
          </mxGeometry>
        </mxCell>
        <mxCell id="wj5eM7WHxlM9F-lFhPUY-61" style="edgeStyle=orthogonalEdgeStyle;rounded=0;orthogonalLoop=1;jettySize=auto;html=1;exitX=0;exitY=0.5;exitDx=0;exitDy=0;shape=link;" edge="1" parent="1" source="wj5eM7WHxlM9F-lFhPUY-59" target="wj5eM7WHxlM9F-lFhPUY-117">
          <mxGeometry relative="1" as="geometry">
            <mxPoint x="14.999999999999773" y="265" as="sourcePoint" />
            <mxPoint x="-100" y="230" as="targetPoint" />
          </mxGeometry>
        </mxCell>
        <mxCell id="wj5eM7WHxlM9F-lFhPUY-62" value="&lt;font style=&quot;font-size: 13px;&quot;&gt;&lt;b&gt;M&lt;/b&gt;&lt;/font&gt;" style="edgeLabel;html=1;align=center;verticalAlign=middle;resizable=0;points=[];" vertex="1" connectable="0" parent="wj5eM7WHxlM9F-lFhPUY-61">
          <mxGeometry x="0.161" y="1" relative="1" as="geometry">
            <mxPoint as="offset" />
          </mxGeometry>
        </mxCell>
        <mxCell id="wj5eM7WHxlM9F-lFhPUY-59" value="&lt;font style=&quot;font-size: 15px;&quot;&gt;Works For&lt;/font&gt;" style="shape=rhombus;double=1;perimeter=rhombusPerimeter;whiteSpace=wrap;html=1;align=center;strokeWidth=2;" vertex="1" parent="1">
          <mxGeometry x="-45" y="250" width="125" height="70" as="geometry" />
        </mxCell>
        <mxCell id="wj5eM7WHxlM9F-lFhPUY-65" style="edgeStyle=orthogonalEdgeStyle;rounded=0;orthogonalLoop=1;jettySize=auto;html=1;entryX=0.25;entryY=1;entryDx=0;entryDy=0;shape=link;exitX=0.917;exitY=0.5;exitDx=0;exitDy=0;exitPerimeter=0;" edge="1" parent="1" source="wj5eM7WHxlM9F-lFhPUY-64" target="wj5eM7WHxlM9F-lFhPUY-21">
          <mxGeometry relative="1" as="geometry" />
        </mxCell>
        <mxCell id="wj5eM7WHxlM9F-lFhPUY-71" value="&lt;font style=&quot;font-size: 13px;&quot;&gt;&lt;b&gt;1&lt;/b&gt;&lt;/font&gt;" style="edgeLabel;html=1;align=center;verticalAlign=middle;resizable=0;points=[];" vertex="1" connectable="0" parent="wj5eM7WHxlM9F-lFhPUY-65">
          <mxGeometry x="0.6331" y="-3" relative="1" as="geometry">
            <mxPoint as="offset" />
          </mxGeometry>
        </mxCell>
        <mxCell id="wj5eM7WHxlM9F-lFhPUY-66" style="edgeStyle=orthogonalEdgeStyle;rounded=0;orthogonalLoop=1;jettySize=auto;html=1;entryX=0.75;entryY=1;entryDx=0;entryDy=0;" edge="1" parent="1" source="wj5eM7WHxlM9F-lFhPUY-64" target="wj5eM7WHxlM9F-lFhPUY-1">
          <mxGeometry relative="1" as="geometry" />
        </mxCell>
        <mxCell id="wj5eM7WHxlM9F-lFhPUY-72" value="&lt;font style=&quot;font-size: 13px;&quot;&gt;&lt;b&gt;1&lt;/b&gt;&lt;/font&gt;" style="edgeLabel;html=1;align=center;verticalAlign=middle;resizable=0;points=[];" vertex="1" connectable="0" parent="wj5eM7WHxlM9F-lFhPUY-66">
          <mxGeometry x="0.6137" relative="1" as="geometry">
            <mxPoint as="offset" />
          </mxGeometry>
        </mxCell>
        <mxCell id="wj5eM7WHxlM9F-lFhPUY-64" value="&lt;font style=&quot;font-size: 15px;&quot;&gt;Manage&lt;/font&gt;" style="shape=rhombus;perimeter=rhombusPerimeter;whiteSpace=wrap;html=1;align=center;" vertex="1" parent="1">
          <mxGeometry x="350" y="330" width="120" height="60" as="geometry" />
        </mxCell>
        <mxCell id="wj5eM7WHxlM9F-lFhPUY-68" value="&lt;font style=&quot;font-size: 15px;&quot;&gt;HiringDate&lt;/font&gt;" style="ellipse;whiteSpace=wrap;html=1;strokeWidth=2;" vertex="1" parent="1">
          <mxGeometry x="285" y="300" width="80" height="30" as="geometry" />
        </mxCell>
        <mxCell id="wj5eM7WHxlM9F-lFhPUY-70" style="edgeStyle=orthogonalEdgeStyle;rounded=0;orthogonalLoop=1;jettySize=auto;html=1;entryX=0.152;entryY=0.36;entryDx=0;entryDy=0;entryPerimeter=0;curved=1;endArrow=none;startFill=0;" edge="1" parent="1" source="wj5eM7WHxlM9F-lFhPUY-68" target="wj5eM7WHxlM9F-lFhPUY-64">
          <mxGeometry relative="1" as="geometry" />
        </mxCell>
        <mxCell id="wj5eM7WHxlM9F-lFhPUY-74" style="edgeStyle=orthogonalEdgeStyle;rounded=0;orthogonalLoop=1;jettySize=auto;html=1;entryX=0;entryY=0.5;entryDx=0;entryDy=0;exitX=1;exitY=0.5;exitDx=0;exitDy=0;" edge="1" parent="1" source="wj5eM7WHxlM9F-lFhPUY-73" target="wj5eM7WHxlM9F-lFhPUY-21">
          <mxGeometry relative="1" as="geometry">
            <mxPoint x="480" y="245" as="sourcePoint" />
          </mxGeometry>
        </mxCell>
        <mxCell id="wj5eM7WHxlM9F-lFhPUY-76" value="&lt;font style=&quot;font-size: 13px;&quot;&gt;&lt;b&gt;1&lt;/b&gt;&lt;/font&gt;" style="edgeLabel;html=1;align=center;verticalAlign=middle;resizable=0;points=[];" vertex="1" connectable="0" parent="wj5eM7WHxlM9F-lFhPUY-74">
          <mxGeometry x="0.3926" relative="1" as="geometry">
            <mxPoint as="offset" />
          </mxGeometry>
        </mxCell>
        <mxCell id="wj5eM7WHxlM9F-lFhPUY-75" style="edgeStyle=orthogonalEdgeStyle;rounded=0;orthogonalLoop=1;jettySize=auto;html=1;entryX=1;entryY=0.5;entryDx=0;entryDy=0;shape=link;" edge="1" parent="1" source="wj5eM7WHxlM9F-lFhPUY-73" target="wj5eM7WHxlM9F-lFhPUY-1">
          <mxGeometry relative="1" as="geometry" />
        </mxCell>
        <mxCell id="wj5eM7WHxlM9F-lFhPUY-77" value="&lt;font style=&quot;font-size: 13px;&quot;&gt;&lt;b&gt;M&lt;/b&gt;&lt;/font&gt;" style="edgeLabel;html=1;align=center;verticalAlign=middle;resizable=0;points=[];" vertex="1" connectable="0" parent="wj5eM7WHxlM9F-lFhPUY-75">
          <mxGeometry x="0.557" y="-2" relative="1" as="geometry">
            <mxPoint as="offset" />
          </mxGeometry>
        </mxCell>
        <mxCell id="wj5eM7WHxlM9F-lFhPUY-73" value="&lt;font style=&quot;font-size: 15px;&quot;&gt;Works On&lt;/font&gt;" style="shape=rhombus;perimeter=rhombusPerimeter;whiteSpace=wrap;html=1;align=center;" vertex="1" parent="1">
          <mxGeometry x="360" y="220" width="100" height="50" as="geometry" />
        </mxCell>
        <mxCell id="wj5eM7WHxlM9F-lFhPUY-80" style="edgeStyle=orthogonalEdgeStyle;rounded=0;orthogonalLoop=1;jettySize=auto;html=1;entryX=1;entryY=0.5;entryDx=0;entryDy=0;exitX=0.5;exitY=1;exitDx=0;exitDy=0;shape=link;" edge="1" parent="1" source="wj5eM7WHxlM9F-lFhPUY-78" target="wj5eM7WHxlM9F-lFhPUY-37">
          <mxGeometry relative="1" as="geometry">
            <Array as="points">
              <mxPoint x="655" y="605" />
            </Array>
          </mxGeometry>
        </mxCell>
        <mxCell id="wj5eM7WHxlM9F-lFhPUY-84" value="&lt;font style=&quot;font-size: 13px;&quot;&gt;&lt;b&gt;M&lt;/b&gt;&lt;/font&gt;" style="edgeLabel;html=1;align=center;verticalAlign=middle;resizable=0;points=[];" vertex="1" connectable="0" parent="wj5eM7WHxlM9F-lFhPUY-80">
          <mxGeometry x="0.4009" y="-1" relative="1" as="geometry">
            <mxPoint as="offset" />
          </mxGeometry>
        </mxCell>
        <mxCell id="wj5eM7WHxlM9F-lFhPUY-78" value="&lt;font style=&quot;font-size: 15px;&quot;&gt;Have&lt;/font&gt;" style="shape=rhombus;perimeter=rhombusPerimeter;whiteSpace=wrap;html=1;align=center;strokeWidth=2;" vertex="1" parent="1">
          <mxGeometry x="595" y="460" width="120" height="60" as="geometry" />
        </mxCell>
        <mxCell id="wj5eM7WHxlM9F-lFhPUY-81" style="edgeStyle=orthogonalEdgeStyle;rounded=0;orthogonalLoop=1;jettySize=auto;html=1;entryX=0.815;entryY=0.906;entryDx=0;entryDy=0;entryPerimeter=0;" edge="1" parent="1" source="wj5eM7WHxlM9F-lFhPUY-78" target="wj5eM7WHxlM9F-lFhPUY-21">
          <mxGeometry relative="1" as="geometry" />
        </mxCell>
        <mxCell id="wj5eM7WHxlM9F-lFhPUY-83" value="&lt;font style=&quot;font-size: 13px;&quot;&gt;&lt;b&gt;1&lt;/b&gt;&lt;/font&gt;" style="edgeLabel;html=1;align=center;verticalAlign=middle;resizable=0;points=[];" vertex="1" connectable="0" parent="wj5eM7WHxlM9F-lFhPUY-81">
          <mxGeometry x="0.4325" y="1" relative="1" as="geometry">
            <mxPoint y="-1" as="offset" />
          </mxGeometry>
        </mxCell>
        <mxCell id="wj5eM7WHxlM9F-lFhPUY-91" style="edgeStyle=orthogonalEdgeStyle;rounded=0;orthogonalLoop=1;jettySize=auto;html=1;entryX=0;entryY=0.5;entryDx=0;entryDy=0;exitX=0.5;exitY=1;exitDx=0;exitDy=0;" edge="1" parent="1" source="wj5eM7WHxlM9F-lFhPUY-85" target="wj5eM7WHxlM9F-lFhPUY-37">
          <mxGeometry relative="1" as="geometry">
            <mxPoint x="165" y="540" as="sourcePoint" />
            <Array as="points">
              <mxPoint x="215" y="605" />
            </Array>
          </mxGeometry>
        </mxCell>
        <mxCell id="wj5eM7WHxlM9F-lFhPUY-103" value="&lt;font style=&quot;font-size: 13px;&quot;&gt;N&lt;/font&gt;" style="edgeLabel;html=1;align=center;verticalAlign=middle;resizable=0;points=[];" vertex="1" connectable="0" parent="wj5eM7WHxlM9F-lFhPUY-91">
          <mxGeometry x="0.4781" y="1" relative="1" as="geometry">
            <mxPoint x="1" as="offset" />
          </mxGeometry>
        </mxCell>
        <mxCell id="wj5eM7WHxlM9F-lFhPUY-85" value="&lt;font style=&quot;font-size: 15px;&quot;&gt;Works In&lt;/font&gt;" style="shape=rhombus;perimeter=rhombusPerimeter;whiteSpace=wrap;html=1;align=center;strokeWidth=2;" vertex="1" parent="1">
          <mxGeometry x="155" y="460" width="120" height="60" as="geometry" />
        </mxCell>
        <mxCell id="wj5eM7WHxlM9F-lFhPUY-90" style="edgeStyle=orthogonalEdgeStyle;rounded=0;orthogonalLoop=1;jettySize=auto;html=1;entryX=0.5;entryY=1;entryDx=0;entryDy=0;" edge="1" parent="1" source="wj5eM7WHxlM9F-lFhPUY-85" target="wj5eM7WHxlM9F-lFhPUY-1">
          <mxGeometry relative="1" as="geometry" />
        </mxCell>
        <mxCell id="wj5eM7WHxlM9F-lFhPUY-102" value="&lt;font style=&quot;font-size: 13px;&quot;&gt;&lt;b&gt;M&lt;/b&gt;&lt;/font&gt;" style="edgeLabel;html=1;align=center;verticalAlign=middle;resizable=0;points=[];" vertex="1" connectable="0" parent="wj5eM7WHxlM9F-lFhPUY-90">
          <mxGeometry x="0.53" y="-1" relative="1" as="geometry">
            <mxPoint y="1" as="offset" />
          </mxGeometry>
        </mxCell>
        <mxCell id="wj5eM7WHxlM9F-lFhPUY-94" style="edgeStyle=orthogonalEdgeStyle;rounded=0;orthogonalLoop=1;jettySize=auto;html=1;entryX=1;entryY=0;entryDx=0;entryDy=0;endArrow=none;startFill=0;curved=1;" edge="1" parent="1" source="wj5eM7WHxlM9F-lFhPUY-93" target="wj5eM7WHxlM9F-lFhPUY-85">
          <mxGeometry relative="1" as="geometry" />
        </mxCell>
        <mxCell id="wj5eM7WHxlM9F-lFhPUY-93" value="&lt;font style=&quot;font-size: 13px;&quot;&gt;WorkingHours&lt;/font&gt;" style="ellipse;whiteSpace=wrap;html=1;strokeWidth=2;" vertex="1" parent="1">
          <mxGeometry x="255" y="410" width="100" height="40" as="geometry" />
        </mxCell>
        <mxCell id="wj5eM7WHxlM9F-lFhPUY-95" value="&lt;font style=&quot;font-size: 15px;&quot;&gt;Supervise&lt;/font&gt;" style="shape=rhombus;perimeter=rhombusPerimeter;whiteSpace=wrap;html=1;align=center;strokeWidth=2;" vertex="1" parent="1">
          <mxGeometry x="85" y="330" width="105" height="50" as="geometry" />
        </mxCell>
        <mxCell id="wj5eM7WHxlM9F-lFhPUY-96" style="rounded=0;orthogonalLoop=1;jettySize=auto;html=1;entryX=0.091;entryY=0.935;entryDx=0;entryDy=0;entryPerimeter=0;exitX=0;exitY=0.5;exitDx=0;exitDy=0;" edge="1" parent="1" source="wj5eM7WHxlM9F-lFhPUY-95" target="wj5eM7WHxlM9F-lFhPUY-1">
          <mxGeometry relative="1" as="geometry" />
        </mxCell>
        <mxCell id="wj5eM7WHxlM9F-lFhPUY-98" value="&lt;font style=&quot;font-size: 13px;&quot;&gt;&lt;b&gt;1&lt;/b&gt;&lt;/font&gt;" style="edgeLabel;html=1;align=center;verticalAlign=middle;resizable=0;points=[];" vertex="1" connectable="0" parent="wj5eM7WHxlM9F-lFhPUY-96">
          <mxGeometry x="-0.0772" y="1" relative="1" as="geometry">
            <mxPoint as="offset" />
          </mxGeometry>
        </mxCell>
        <mxCell id="wj5eM7WHxlM9F-lFhPUY-97" style="rounded=0;orthogonalLoop=1;jettySize=auto;html=1;entryX=0.091;entryY=0.935;entryDx=0;entryDy=0;entryPerimeter=0;exitX=1;exitY=0.5;exitDx=0;exitDy=0;shape=link;" edge="1" parent="1" source="wj5eM7WHxlM9F-lFhPUY-95" target="wj5eM7WHxlM9F-lFhPUY-1">
          <mxGeometry relative="1" as="geometry" />
        </mxCell>
        <mxCell id="wj5eM7WHxlM9F-lFhPUY-101" value="&lt;font style=&quot;font-size: 13px;&quot;&gt;&lt;b&gt;M&lt;/b&gt;&lt;/font&gt;" style="edgeLabel;html=1;align=center;verticalAlign=middle;resizable=0;points=[];" vertex="1" connectable="0" parent="wj5eM7WHxlM9F-lFhPUY-97">
          <mxGeometry x="-0.0234" y="1" relative="1" as="geometry">
            <mxPoint as="offset" />
          </mxGeometry>
        </mxCell>
        <mxCell id="wj5eM7WHxlM9F-lFhPUY-104" value="&lt;span style=&quot;font-size: 15px; font-weight: 400; text-wrap-mode: wrap;&quot;&gt;Dependent&lt;/span&gt;" style="shape=table;startSize=30;container=1;collapsible=1;childLayout=tableLayout;fixedRows=1;rowLines=0;fontStyle=1;align=center;resizeLast=1;html=1;strokeWidth=2;fillColor=#F8CECC;strokeColor=#6c8ebf;" vertex="1" parent="1">
          <mxGeometry x="-690" y="580" width="180" height="150" as="geometry" />
        </mxCell>
        <mxCell id="wj5eM7WHxlM9F-lFhPUY-105" value="" style="shape=tableRow;horizontal=0;startSize=0;swimlaneHead=0;swimlaneBody=0;fillColor=#dae8fc;collapsible=0;dropTarget=0;points=[[0,0.5],[1,0.5]];portConstraint=eastwest;top=0;left=0;right=0;bottom=1;strokeColor=#6c8ebf;" vertex="1" parent="wj5eM7WHxlM9F-lFhPUY-104">
          <mxGeometry y="30" width="180" height="30" as="geometry" />
        </mxCell>
        <mxCell id="wj5eM7WHxlM9F-lFhPUY-106" value="PK" style="shape=partialRectangle;connectable=0;fillColor=#dae8fc;top=0;left=0;bottom=0;right=0;fontStyle=1;overflow=hidden;whiteSpace=wrap;html=1;strokeColor=#6c8ebf;" vertex="1" parent="wj5eM7WHxlM9F-lFhPUY-105">
          <mxGeometry width="30" height="30" as="geometry">
            <mxRectangle width="30" height="30" as="alternateBounds" />
          </mxGeometry>
        </mxCell>
        <mxCell id="wj5eM7WHxlM9F-lFhPUY-107" value="Dname, Emp-SSN" style="shape=partialRectangle;connectable=0;fillColor=#dae8fc;top=0;left=0;bottom=0;right=0;align=left;spacingLeft=6;fontStyle=5;overflow=hidden;whiteSpace=wrap;html=1;strokeColor=#6c8ebf;" vertex="1" parent="wj5eM7WHxlM9F-lFhPUY-105">
          <mxGeometry x="30" width="150" height="30" as="geometry">
            <mxRectangle width="150" height="30" as="alternateBounds" />
          </mxGeometry>
        </mxCell>
        <mxCell id="wj5eM7WHxlM9F-lFhPUY-108" value="" style="shape=tableRow;horizontal=0;startSize=0;swimlaneHead=0;swimlaneBody=0;fillColor=#dae8fc;collapsible=0;dropTarget=0;points=[[0,0.5],[1,0.5]];portConstraint=eastwest;top=0;left=0;right=0;bottom=0;strokeColor=#6c8ebf;" vertex="1" parent="wj5eM7WHxlM9F-lFhPUY-104">
          <mxGeometry y="60" width="180" height="30" as="geometry" />
        </mxCell>
        <mxCell id="wj5eM7WHxlM9F-lFhPUY-109" value="" style="shape=partialRectangle;connectable=0;fillColor=#dae8fc;top=0;left=0;bottom=0;right=0;editable=1;overflow=hidden;whiteSpace=wrap;html=1;strokeColor=#6c8ebf;" vertex="1" parent="wj5eM7WHxlM9F-lFhPUY-108">
          <mxGeometry width="30" height="30" as="geometry">
            <mxRectangle width="30" height="30" as="alternateBounds" />
          </mxGeometry>
        </mxCell>
        <mxCell id="wj5eM7WHxlM9F-lFhPUY-110" value="Gender" style="shape=partialRectangle;connectable=0;fillColor=#dae8fc;top=0;left=0;bottom=0;right=0;align=left;spacingLeft=6;overflow=hidden;whiteSpace=wrap;html=1;strokeColor=#6c8ebf;" vertex="1" parent="wj5eM7WHxlM9F-lFhPUY-108">
          <mxGeometry x="30" width="150" height="30" as="geometry">
            <mxRectangle width="150" height="30" as="alternateBounds" />
          </mxGeometry>
        </mxCell>
        <mxCell id="wj5eM7WHxlM9F-lFhPUY-111" value="" style="shape=tableRow;horizontal=0;startSize=0;swimlaneHead=0;swimlaneBody=0;fillColor=#dae8fc;collapsible=0;dropTarget=0;points=[[0,0.5],[1,0.5]];portConstraint=eastwest;top=0;left=0;right=0;bottom=0;strokeColor=#6c8ebf;" vertex="1" parent="wj5eM7WHxlM9F-lFhPUY-104">
          <mxGeometry y="90" width="180" height="30" as="geometry" />
        </mxCell>
        <mxCell id="wj5eM7WHxlM9F-lFhPUY-112" value="" style="shape=partialRectangle;connectable=0;fillColor=#dae8fc;top=0;left=0;bottom=0;right=0;editable=1;overflow=hidden;whiteSpace=wrap;html=1;strokeColor=#6c8ebf;" vertex="1" parent="wj5eM7WHxlM9F-lFhPUY-111">
          <mxGeometry width="30" height="30" as="geometry">
            <mxRectangle width="30" height="30" as="alternateBounds" />
          </mxGeometry>
        </mxCell>
        <mxCell id="wj5eM7WHxlM9F-lFhPUY-113" value="DOB" style="shape=partialRectangle;connectable=0;fillColor=#dae8fc;top=0;left=0;bottom=0;right=0;align=left;spacingLeft=6;overflow=hidden;whiteSpace=wrap;html=1;strokeColor=#6c8ebf;" vertex="1" parent="wj5eM7WHxlM9F-lFhPUY-111">
          <mxGeometry x="30" width="150" height="30" as="geometry">
            <mxRectangle width="150" height="30" as="alternateBounds" />
          </mxGeometry>
        </mxCell>
        <mxCell id="wj5eM7WHxlM9F-lFhPUY-114" value="" style="shape=tableRow;horizontal=0;startSize=0;swimlaneHead=0;swimlaneBody=0;fillColor=#dae8fc;collapsible=0;dropTarget=0;points=[[0,0.5],[1,0.5]];portConstraint=eastwest;top=0;left=0;right=0;bottom=0;strokeColor=#6c8ebf;" vertex="1" parent="wj5eM7WHxlM9F-lFhPUY-104">
          <mxGeometry y="120" width="180" height="30" as="geometry" />
        </mxCell>
        <mxCell id="wj5eM7WHxlM9F-lFhPUY-115" value="" style="shape=partialRectangle;connectable=0;fillColor=#dae8fc;top=0;left=0;bottom=0;right=0;editable=1;overflow=hidden;whiteSpace=wrap;html=1;strokeColor=#6c8ebf;" vertex="1" parent="wj5eM7WHxlM9F-lFhPUY-114">
          <mxGeometry width="30" height="30" as="geometry">
            <mxRectangle width="30" height="30" as="alternateBounds" />
          </mxGeometry>
        </mxCell>
        <mxCell id="wj5eM7WHxlM9F-lFhPUY-116" value="&lt;font style=&quot;color: light-dark(rgb(247, 8, 8), rgb(0, 118, 0));&quot;&gt;&lt;b&gt;Emp-SSN&lt;/b&gt;&lt;/font&gt;" style="shape=partialRectangle;connectable=0;fillColor=#dae8fc;top=0;left=0;bottom=0;right=0;align=left;spacingLeft=6;overflow=hidden;whiteSpace=wrap;html=1;strokeColor=#6c8ebf;" vertex="1" parent="wj5eM7WHxlM9F-lFhPUY-114">
          <mxGeometry x="30" width="150" height="30" as="geometry">
            <mxRectangle width="150" height="30" as="alternateBounds" />
          </mxGeometry>
        </mxCell>
        <mxCell id="wj5eM7WHxlM9F-lFhPUY-117" value="&lt;span style=&quot;font-size: 15px;&quot;&gt;Dependent&lt;/span&gt;" style="shape=ext;margin=3;double=1;whiteSpace=wrap;html=1;align=center;strokeWidth=2;" vertex="1" parent="1">
          <mxGeometry x="-272.5" y="220" width="160" height="40" as="geometry" />
        </mxCell>
        <mxCell id="wj5eM7WHxlM9F-lFhPUY-120" value="&lt;span style=&quot;font-size: 15px; font-weight: 400; text-wrap-mode: wrap;&quot;&gt;Employees&lt;/span&gt;" style="shape=table;startSize=30;container=1;collapsible=1;childLayout=tableLayout;fixedRows=1;rowLines=0;fontStyle=1;align=center;resizeLast=1;html=1;strokeWidth=2;fillColor=#A680B8;strokeColor=#6c8ebf;" vertex="1" parent="1">
          <mxGeometry x="-432.5" y="630" width="180" height="240" as="geometry" />
        </mxCell>
        <mxCell id="wj5eM7WHxlM9F-lFhPUY-121" value="" style="shape=tableRow;horizontal=0;startSize=0;swimlaneHead=0;swimlaneBody=0;fillColor=#dae8fc;collapsible=0;dropTarget=0;points=[[0,0.5],[1,0.5]];portConstraint=eastwest;top=0;left=0;right=0;bottom=1;strokeColor=#6c8ebf;" vertex="1" parent="wj5eM7WHxlM9F-lFhPUY-120">
          <mxGeometry y="30" width="180" height="30" as="geometry" />
        </mxCell>
        <mxCell id="wj5eM7WHxlM9F-lFhPUY-122" value="PK" style="shape=partialRectangle;connectable=0;fillColor=#dae8fc;top=0;left=0;bottom=0;right=0;fontStyle=1;overflow=hidden;whiteSpace=wrap;html=1;strokeColor=#6c8ebf;" vertex="1" parent="wj5eM7WHxlM9F-lFhPUY-121">
          <mxGeometry width="30" height="30" as="geometry">
            <mxRectangle width="30" height="30" as="alternateBounds" />
          </mxGeometry>
        </mxCell>
        <mxCell id="wj5eM7WHxlM9F-lFhPUY-123" value="Emp-SSN" style="shape=partialRectangle;connectable=0;fillColor=#dae8fc;top=0;left=0;bottom=0;right=0;align=left;spacingLeft=6;fontStyle=5;overflow=hidden;whiteSpace=wrap;html=1;strokeColor=#6c8ebf;" vertex="1" parent="wj5eM7WHxlM9F-lFhPUY-121">
          <mxGeometry x="30" width="150" height="30" as="geometry">
            <mxRectangle width="150" height="30" as="alternateBounds" />
          </mxGeometry>
        </mxCell>
        <mxCell id="wj5eM7WHxlM9F-lFhPUY-124" value="" style="shape=tableRow;horizontal=0;startSize=0;swimlaneHead=0;swimlaneBody=0;fillColor=#dae8fc;collapsible=0;dropTarget=0;points=[[0,0.5],[1,0.5]];portConstraint=eastwest;top=0;left=0;right=0;bottom=0;strokeColor=#6c8ebf;" vertex="1" parent="wj5eM7WHxlM9F-lFhPUY-120">
          <mxGeometry y="60" width="180" height="30" as="geometry" />
        </mxCell>
        <mxCell id="wj5eM7WHxlM9F-lFhPUY-125" value="" style="shape=partialRectangle;connectable=0;fillColor=#dae8fc;top=0;left=0;bottom=0;right=0;editable=1;overflow=hidden;whiteSpace=wrap;html=1;strokeColor=#6c8ebf;" vertex="1" parent="wj5eM7WHxlM9F-lFhPUY-124">
          <mxGeometry width="30" height="30" as="geometry">
            <mxRectangle width="30" height="30" as="alternateBounds" />
          </mxGeometry>
        </mxCell>
        <mxCell id="wj5eM7WHxlM9F-lFhPUY-126" value="Lname" style="shape=partialRectangle;connectable=0;fillColor=#dae8fc;top=0;left=0;bottom=0;right=0;align=left;spacingLeft=6;overflow=hidden;whiteSpace=wrap;html=1;strokeColor=#6c8ebf;" vertex="1" parent="wj5eM7WHxlM9F-lFhPUY-124">
          <mxGeometry x="30" width="150" height="30" as="geometry">
            <mxRectangle width="150" height="30" as="alternateBounds" />
          </mxGeometry>
        </mxCell>
        <mxCell id="wj5eM7WHxlM9F-lFhPUY-127" value="" style="shape=tableRow;horizontal=0;startSize=0;swimlaneHead=0;swimlaneBody=0;fillColor=#dae8fc;collapsible=0;dropTarget=0;points=[[0,0.5],[1,0.5]];portConstraint=eastwest;top=0;left=0;right=0;bottom=0;strokeColor=#6c8ebf;" vertex="1" parent="wj5eM7WHxlM9F-lFhPUY-120">
          <mxGeometry y="90" width="180" height="30" as="geometry" />
        </mxCell>
        <mxCell id="wj5eM7WHxlM9F-lFhPUY-128" value="" style="shape=partialRectangle;connectable=0;fillColor=#dae8fc;top=0;left=0;bottom=0;right=0;editable=1;overflow=hidden;whiteSpace=wrap;html=1;strokeColor=#6c8ebf;" vertex="1" parent="wj5eM7WHxlM9F-lFhPUY-127">
          <mxGeometry width="30" height="30" as="geometry">
            <mxRectangle width="30" height="30" as="alternateBounds" />
          </mxGeometry>
        </mxCell>
        <mxCell id="wj5eM7WHxlM9F-lFhPUY-129" value="Fname" style="shape=partialRectangle;connectable=0;fillColor=#dae8fc;top=0;left=0;bottom=0;right=0;align=left;spacingLeft=6;overflow=hidden;whiteSpace=wrap;html=1;strokeColor=#6c8ebf;" vertex="1" parent="wj5eM7WHxlM9F-lFhPUY-127">
          <mxGeometry x="30" width="150" height="30" as="geometry">
            <mxRectangle width="150" height="30" as="alternateBounds" />
          </mxGeometry>
        </mxCell>
        <mxCell id="wj5eM7WHxlM9F-lFhPUY-133" value="" style="shape=tableRow;horizontal=0;startSize=0;swimlaneHead=0;swimlaneBody=0;fillColor=#dae8fc;collapsible=0;dropTarget=0;points=[[0,0.5],[1,0.5]];portConstraint=eastwest;top=0;left=0;right=0;bottom=0;strokeColor=#6c8ebf;" vertex="1" parent="wj5eM7WHxlM9F-lFhPUY-120">
          <mxGeometry y="120" width="180" height="30" as="geometry" />
        </mxCell>
        <mxCell id="wj5eM7WHxlM9F-lFhPUY-134" value="" style="shape=partialRectangle;connectable=0;fillColor=#dae8fc;top=0;left=0;bottom=0;right=0;editable=1;overflow=hidden;whiteSpace=wrap;html=1;strokeColor=#6c8ebf;" vertex="1" parent="wj5eM7WHxlM9F-lFhPUY-133">
          <mxGeometry width="30" height="30" as="geometry">
            <mxRectangle width="30" height="30" as="alternateBounds" />
          </mxGeometry>
        </mxCell>
        <mxCell id="wj5eM7WHxlM9F-lFhPUY-135" value="Gender" style="shape=partialRectangle;connectable=0;fillColor=#dae8fc;top=0;left=0;bottom=0;right=0;align=left;spacingLeft=6;overflow=hidden;whiteSpace=wrap;html=1;strokeColor=#6c8ebf;" vertex="1" parent="wj5eM7WHxlM9F-lFhPUY-133">
          <mxGeometry x="30" width="150" height="30" as="geometry">
            <mxRectangle width="150" height="30" as="alternateBounds" />
          </mxGeometry>
        </mxCell>
        <mxCell id="wj5eM7WHxlM9F-lFhPUY-136" value="" style="shape=tableRow;horizontal=0;startSize=0;swimlaneHead=0;swimlaneBody=0;fillColor=#dae8fc;collapsible=0;dropTarget=0;points=[[0,0.5],[1,0.5]];portConstraint=eastwest;top=0;left=0;right=0;bottom=0;strokeColor=#6c8ebf;" vertex="1" parent="wj5eM7WHxlM9F-lFhPUY-120">
          <mxGeometry y="150" width="180" height="30" as="geometry" />
        </mxCell>
        <mxCell id="wj5eM7WHxlM9F-lFhPUY-137" value="" style="shape=partialRectangle;connectable=0;fillColor=#dae8fc;top=0;left=0;bottom=0;right=0;editable=1;overflow=hidden;whiteSpace=wrap;html=1;strokeColor=#6c8ebf;" vertex="1" parent="wj5eM7WHxlM9F-lFhPUY-136">
          <mxGeometry width="30" height="30" as="geometry">
            <mxRectangle width="30" height="30" as="alternateBounds" />
          </mxGeometry>
        </mxCell>
        <mxCell id="wj5eM7WHxlM9F-lFhPUY-138" value="DOB" style="shape=partialRectangle;connectable=0;fillColor=#dae8fc;top=0;left=0;bottom=0;right=0;align=left;spacingLeft=6;overflow=hidden;whiteSpace=wrap;html=1;strokeColor=#6c8ebf;" vertex="1" parent="wj5eM7WHxlM9F-lFhPUY-136">
          <mxGeometry x="30" width="150" height="30" as="geometry">
            <mxRectangle width="150" height="30" as="alternateBounds" />
          </mxGeometry>
        </mxCell>
        <mxCell id="wj5eM7WHxlM9F-lFhPUY-130" value="" style="shape=tableRow;horizontal=0;startSize=0;swimlaneHead=0;swimlaneBody=0;fillColor=#dae8fc;collapsible=0;dropTarget=0;points=[[0,0.5],[1,0.5]];portConstraint=eastwest;top=0;left=0;right=0;bottom=0;strokeColor=#6c8ebf;" vertex="1" parent="wj5eM7WHxlM9F-lFhPUY-120">
          <mxGeometry y="180" width="180" height="30" as="geometry" />
        </mxCell>
        <mxCell id="wj5eM7WHxlM9F-lFhPUY-131" value="" style="shape=partialRectangle;connectable=0;fillColor=#dae8fc;top=0;left=0;bottom=0;right=0;editable=1;overflow=hidden;whiteSpace=wrap;html=1;strokeColor=#6c8ebf;" vertex="1" parent="wj5eM7WHxlM9F-lFhPUY-130">
          <mxGeometry width="30" height="30" as="geometry">
            <mxRectangle width="30" height="30" as="alternateBounds" />
          </mxGeometry>
        </mxCell>
        <mxCell id="wj5eM7WHxlM9F-lFhPUY-132" value="&lt;font style=&quot;color: light-dark(rgb(247, 8, 8), rgb(0, 118, 0));&quot;&gt;&lt;b&gt;Dnum&lt;/b&gt;&lt;/font&gt;" style="shape=partialRectangle;connectable=0;fillColor=#dae8fc;top=0;left=0;bottom=0;right=0;align=left;spacingLeft=6;overflow=hidden;whiteSpace=wrap;html=1;strokeColor=#6c8ebf;" vertex="1" parent="wj5eM7WHxlM9F-lFhPUY-130">
          <mxGeometry x="30" width="150" height="30" as="geometry">
            <mxRectangle width="150" height="30" as="alternateBounds" />
          </mxGeometry>
        </mxCell>
        <mxCell id="wj5eM7WHxlM9F-lFhPUY-253" value="" style="shape=tableRow;horizontal=0;startSize=0;swimlaneHead=0;swimlaneBody=0;fillColor=#dae8fc;collapsible=0;dropTarget=0;points=[[0,0.5],[1,0.5]];portConstraint=eastwest;top=0;left=0;right=0;bottom=0;strokeColor=#6c8ebf;" vertex="1" parent="wj5eM7WHxlM9F-lFhPUY-120">
          <mxGeometry y="210" width="180" height="30" as="geometry" />
        </mxCell>
        <mxCell id="wj5eM7WHxlM9F-lFhPUY-254" value="" style="shape=partialRectangle;connectable=0;fillColor=#dae8fc;top=0;left=0;bottom=0;right=0;editable=1;overflow=hidden;whiteSpace=wrap;html=1;strokeColor=#6c8ebf;" vertex="1" parent="wj5eM7WHxlM9F-lFhPUY-253">
          <mxGeometry width="30" height="30" as="geometry">
            <mxRectangle width="30" height="30" as="alternateBounds" />
          </mxGeometry>
        </mxCell>
        <mxCell id="wj5eM7WHxlM9F-lFhPUY-255" value="&lt;font style=&quot;color: light-dark(rgb(247, 8, 8), rgb(0, 118, 0));&quot;&gt;&lt;b&gt;SSN&lt;/b&gt;&lt;/font&gt;" style="shape=partialRectangle;connectable=0;fillColor=#dae8fc;top=0;left=0;bottom=0;right=0;align=left;spacingLeft=6;overflow=hidden;whiteSpace=wrap;html=1;strokeColor=#6c8ebf;" vertex="1" parent="wj5eM7WHxlM9F-lFhPUY-253">
          <mxGeometry x="30" width="150" height="30" as="geometry">
            <mxRectangle width="150" height="30" as="alternateBounds" />
          </mxGeometry>
        </mxCell>
        <mxCell id="wj5eM7WHxlM9F-lFhPUY-212" style="edgeStyle=orthogonalEdgeStyle;rounded=0;orthogonalLoop=1;jettySize=auto;html=1;entryX=0.995;entryY=0.233;entryDx=0;entryDy=0;entryPerimeter=0;fillColor=#dae8fc;strokeColor=#6c8ebf;" edge="1" parent="1" source="wj5eM7WHxlM9F-lFhPUY-145" target="wj5eM7WHxlM9F-lFhPUY-165">
          <mxGeometry relative="1" as="geometry" />
        </mxCell>
        <mxCell id="wj5eM7WHxlM9F-lFhPUY-145" value="&lt;span style=&quot;font-size: 15px; font-weight: 400; text-wrap-mode: wrap;&quot;&gt;Locations&lt;/span&gt;" style="shape=table;startSize=30;container=1;collapsible=1;childLayout=tableLayout;fixedRows=1;rowLines=0;fontStyle=1;align=center;resizeLast=1;html=1;strokeWidth=2;fillColor=#FFD966;strokeColor=#6c8ebf;" vertex="1" parent="1">
          <mxGeometry x="85" y="650" width="180" height="120" as="geometry" />
        </mxCell>
        <mxCell id="wj5eM7WHxlM9F-lFhPUY-146" value="" style="shape=tableRow;horizontal=0;startSize=0;swimlaneHead=0;swimlaneBody=0;fillColor=#dae8fc;collapsible=0;dropTarget=0;points=[[0,0.5],[1,0.5]];portConstraint=eastwest;top=0;left=0;right=0;bottom=1;strokeColor=#6c8ebf;" vertex="1" parent="wj5eM7WHxlM9F-lFhPUY-145">
          <mxGeometry y="30" width="180" height="30" as="geometry" />
        </mxCell>
        <mxCell id="wj5eM7WHxlM9F-lFhPUY-147" value="PK" style="shape=partialRectangle;connectable=0;fillColor=#dae8fc;top=0;left=0;bottom=0;right=0;fontStyle=1;overflow=hidden;whiteSpace=wrap;html=1;strokeColor=#6c8ebf;" vertex="1" parent="wj5eM7WHxlM9F-lFhPUY-146">
          <mxGeometry width="30" height="30" as="geometry">
            <mxRectangle width="30" height="30" as="alternateBounds" />
          </mxGeometry>
        </mxCell>
        <mxCell id="wj5eM7WHxlM9F-lFhPUY-148" value="Dnum, Location" style="shape=partialRectangle;connectable=0;fillColor=#dae8fc;top=0;left=0;bottom=0;right=0;align=left;spacingLeft=6;fontStyle=5;overflow=hidden;whiteSpace=wrap;html=1;strokeColor=#6c8ebf;" vertex="1" parent="wj5eM7WHxlM9F-lFhPUY-146">
          <mxGeometry x="30" width="150" height="30" as="geometry">
            <mxRectangle width="150" height="30" as="alternateBounds" />
          </mxGeometry>
        </mxCell>
        <mxCell id="wj5eM7WHxlM9F-lFhPUY-158" value="" style="shape=tableRow;horizontal=0;startSize=0;swimlaneHead=0;swimlaneBody=0;fillColor=#dae8fc;collapsible=0;dropTarget=0;points=[[0,0.5],[1,0.5]];portConstraint=eastwest;top=0;left=0;right=0;bottom=0;strokeColor=#6c8ebf;" vertex="1" parent="wj5eM7WHxlM9F-lFhPUY-145">
          <mxGeometry y="60" width="180" height="30" as="geometry" />
        </mxCell>
        <mxCell id="wj5eM7WHxlM9F-lFhPUY-159" value="" style="shape=partialRectangle;connectable=0;fillColor=#dae8fc;top=0;left=0;bottom=0;right=0;editable=1;overflow=hidden;whiteSpace=wrap;html=1;strokeColor=#6c8ebf;" vertex="1" parent="wj5eM7WHxlM9F-lFhPUY-158">
          <mxGeometry width="30" height="30" as="geometry">
            <mxRectangle width="30" height="30" as="alternateBounds" />
          </mxGeometry>
        </mxCell>
        <mxCell id="wj5eM7WHxlM9F-lFhPUY-160" value="Location" style="shape=partialRectangle;connectable=0;fillColor=#dae8fc;top=0;left=0;bottom=0;right=0;align=left;spacingLeft=6;overflow=hidden;whiteSpace=wrap;html=1;strokeColor=#6c8ebf;" vertex="1" parent="wj5eM7WHxlM9F-lFhPUY-158">
          <mxGeometry x="30" width="150" height="30" as="geometry">
            <mxRectangle width="150" height="30" as="alternateBounds" />
          </mxGeometry>
        </mxCell>
        <mxCell id="wj5eM7WHxlM9F-lFhPUY-161" value="" style="shape=tableRow;horizontal=0;startSize=0;swimlaneHead=0;swimlaneBody=0;fillColor=#dae8fc;collapsible=0;dropTarget=0;points=[[0,0.5],[1,0.5]];portConstraint=eastwest;top=0;left=0;right=0;bottom=0;strokeColor=#6c8ebf;" vertex="1" parent="wj5eM7WHxlM9F-lFhPUY-145">
          <mxGeometry y="90" width="180" height="30" as="geometry" />
        </mxCell>
        <mxCell id="wj5eM7WHxlM9F-lFhPUY-162" value="" style="shape=partialRectangle;connectable=0;fillColor=#dae8fc;top=0;left=0;bottom=0;right=0;editable=1;overflow=hidden;whiteSpace=wrap;html=1;strokeColor=#6c8ebf;" vertex="1" parent="wj5eM7WHxlM9F-lFhPUY-161">
          <mxGeometry width="30" height="30" as="geometry">
            <mxRectangle width="30" height="30" as="alternateBounds" />
          </mxGeometry>
        </mxCell>
        <mxCell id="wj5eM7WHxlM9F-lFhPUY-163" value="&lt;font style=&quot;color: light-dark(rgb(247, 8, 8), rgb(0, 118, 0));&quot;&gt;&lt;b&gt;Dnum&lt;/b&gt;&lt;/font&gt;" style="shape=partialRectangle;connectable=0;fillColor=#dae8fc;top=0;left=0;bottom=0;right=0;align=left;spacingLeft=6;overflow=hidden;whiteSpace=wrap;html=1;strokeColor=#6c8ebf;" vertex="1" parent="wj5eM7WHxlM9F-lFhPUY-161">
          <mxGeometry x="30" width="150" height="30" as="geometry">
            <mxRectangle width="150" height="30" as="alternateBounds" />
          </mxGeometry>
        </mxCell>
        <mxCell id="wj5eM7WHxlM9F-lFhPUY-183" value="&lt;span style=&quot;font-size: 15px; font-weight: 400; text-wrap-mode: wrap;&quot;&gt;Project&lt;/span&gt;" style="shape=table;startSize=30;container=1;collapsible=1;childLayout=tableLayout;fixedRows=1;rowLines=0;fontStyle=1;align=center;resizeLast=1;html=1;strokeWidth=2;fillColor=#67AB9F;strokeColor=#6c8ebf;" vertex="1" parent="1">
          <mxGeometry x="-280" y="940" width="180" height="150" as="geometry" />
        </mxCell>
        <mxCell id="wj5eM7WHxlM9F-lFhPUY-184" value="" style="shape=tableRow;horizontal=0;startSize=0;swimlaneHead=0;swimlaneBody=0;fillColor=#dae8fc;collapsible=0;dropTarget=0;points=[[0,0.5],[1,0.5]];portConstraint=eastwest;top=0;left=0;right=0;bottom=1;strokeColor=#6c8ebf;" vertex="1" parent="wj5eM7WHxlM9F-lFhPUY-183">
          <mxGeometry y="30" width="180" height="30" as="geometry" />
        </mxCell>
        <mxCell id="wj5eM7WHxlM9F-lFhPUY-185" value="PK" style="shape=partialRectangle;connectable=0;fillColor=#dae8fc;top=0;left=0;bottom=0;right=0;fontStyle=1;overflow=hidden;whiteSpace=wrap;html=1;strokeColor=#6c8ebf;" vertex="1" parent="wj5eM7WHxlM9F-lFhPUY-184">
          <mxGeometry width="30" height="30" as="geometry">
            <mxRectangle width="30" height="30" as="alternateBounds" />
          </mxGeometry>
        </mxCell>
        <mxCell id="wj5eM7WHxlM9F-lFhPUY-186" value="Pnum" style="shape=partialRectangle;connectable=0;fillColor=#dae8fc;top=0;left=0;bottom=0;right=0;align=left;spacingLeft=6;fontStyle=5;overflow=hidden;whiteSpace=wrap;html=1;strokeColor=#6c8ebf;" vertex="1" parent="wj5eM7WHxlM9F-lFhPUY-184">
          <mxGeometry x="30" width="150" height="30" as="geometry">
            <mxRectangle width="150" height="30" as="alternateBounds" />
          </mxGeometry>
        </mxCell>
        <mxCell id="wj5eM7WHxlM9F-lFhPUY-187" value="" style="shape=tableRow;horizontal=0;startSize=0;swimlaneHead=0;swimlaneBody=0;fillColor=#dae8fc;collapsible=0;dropTarget=0;points=[[0,0.5],[1,0.5]];portConstraint=eastwest;top=0;left=0;right=0;bottom=0;strokeColor=#6c8ebf;" vertex="1" parent="wj5eM7WHxlM9F-lFhPUY-183">
          <mxGeometry y="60" width="180" height="30" as="geometry" />
        </mxCell>
        <mxCell id="wj5eM7WHxlM9F-lFhPUY-188" value="" style="shape=partialRectangle;connectable=0;fillColor=#dae8fc;top=0;left=0;bottom=0;right=0;editable=1;overflow=hidden;whiteSpace=wrap;html=1;strokeColor=#6c8ebf;" vertex="1" parent="wj5eM7WHxlM9F-lFhPUY-187">
          <mxGeometry width="30" height="30" as="geometry">
            <mxRectangle width="30" height="30" as="alternateBounds" />
          </mxGeometry>
        </mxCell>
        <mxCell id="wj5eM7WHxlM9F-lFhPUY-189" value="Pname" style="shape=partialRectangle;connectable=0;fillColor=#dae8fc;top=0;left=0;bottom=0;right=0;align=left;spacingLeft=6;overflow=hidden;whiteSpace=wrap;html=1;strokeColor=#6c8ebf;" vertex="1" parent="wj5eM7WHxlM9F-lFhPUY-187">
          <mxGeometry x="30" width="150" height="30" as="geometry">
            <mxRectangle width="150" height="30" as="alternateBounds" />
          </mxGeometry>
        </mxCell>
        <mxCell id="wj5eM7WHxlM9F-lFhPUY-193" value="" style="shape=tableRow;horizontal=0;startSize=0;swimlaneHead=0;swimlaneBody=0;fillColor=#dae8fc;collapsible=0;dropTarget=0;points=[[0,0.5],[1,0.5]];portConstraint=eastwest;top=0;left=0;right=0;bottom=0;strokeColor=#6c8ebf;" vertex="1" parent="wj5eM7WHxlM9F-lFhPUY-183">
          <mxGeometry y="90" width="180" height="30" as="geometry" />
        </mxCell>
        <mxCell id="wj5eM7WHxlM9F-lFhPUY-194" value="" style="shape=partialRectangle;connectable=0;fillColor=#dae8fc;top=0;left=0;bottom=0;right=0;editable=1;overflow=hidden;whiteSpace=wrap;html=1;strokeColor=#6c8ebf;" vertex="1" parent="wj5eM7WHxlM9F-lFhPUY-193">
          <mxGeometry width="30" height="30" as="geometry">
            <mxRectangle width="30" height="30" as="alternateBounds" />
          </mxGeometry>
        </mxCell>
        <mxCell id="wj5eM7WHxlM9F-lFhPUY-195" value="Location" style="shape=partialRectangle;connectable=0;fillColor=#dae8fc;top=0;left=0;bottom=0;right=0;align=left;spacingLeft=6;overflow=hidden;whiteSpace=wrap;html=1;strokeColor=#6c8ebf;" vertex="1" parent="wj5eM7WHxlM9F-lFhPUY-193">
          <mxGeometry x="30" width="150" height="30" as="geometry">
            <mxRectangle width="150" height="30" as="alternateBounds" />
          </mxGeometry>
        </mxCell>
        <mxCell id="wj5eM7WHxlM9F-lFhPUY-190" value="" style="shape=tableRow;horizontal=0;startSize=0;swimlaneHead=0;swimlaneBody=0;fillColor=#dae8fc;collapsible=0;dropTarget=0;points=[[0,0.5],[1,0.5]];portConstraint=eastwest;top=0;left=0;right=0;bottom=0;strokeColor=#6c8ebf;" vertex="1" parent="wj5eM7WHxlM9F-lFhPUY-183">
          <mxGeometry y="120" width="180" height="30" as="geometry" />
        </mxCell>
        <mxCell id="wj5eM7WHxlM9F-lFhPUY-191" value="" style="shape=partialRectangle;connectable=0;fillColor=#dae8fc;top=0;left=0;bottom=0;right=0;editable=1;overflow=hidden;whiteSpace=wrap;html=1;strokeColor=#6c8ebf;" vertex="1" parent="wj5eM7WHxlM9F-lFhPUY-190">
          <mxGeometry width="30" height="30" as="geometry">
            <mxRectangle width="30" height="30" as="alternateBounds" />
          </mxGeometry>
        </mxCell>
        <mxCell id="wj5eM7WHxlM9F-lFhPUY-192" value="&lt;font style=&quot;color: light-dark(rgb(247, 8, 8), rgb(0, 118, 0));&quot;&gt;&lt;b&gt;Dnum&lt;/b&gt;&lt;/font&gt;" style="shape=partialRectangle;connectable=0;fillColor=#dae8fc;top=0;left=0;bottom=0;right=0;align=left;spacingLeft=6;overflow=hidden;whiteSpace=wrap;html=1;strokeColor=#6c8ebf;" vertex="1" parent="wj5eM7WHxlM9F-lFhPUY-190">
          <mxGeometry x="30" width="150" height="30" as="geometry">
            <mxRectangle width="150" height="30" as="alternateBounds" />
          </mxGeometry>
        </mxCell>
        <mxCell id="wj5eM7WHxlM9F-lFhPUY-164" value="&lt;span style=&quot;font-size: 15px; font-weight: 400; text-wrap-mode: wrap;&quot;&gt;Departments&lt;/span&gt;" style="shape=table;startSize=30;container=1;collapsible=1;childLayout=tableLayout;fixedRows=1;rowLines=0;fontStyle=1;align=center;resizeLast=1;html=1;strokeWidth=2;fillColor=#FF99CC;strokeColor=#6c8ebf;" vertex="1" parent="1">
          <mxGeometry x="-160" y="570" width="180" height="150" as="geometry" />
        </mxCell>
        <mxCell id="wj5eM7WHxlM9F-lFhPUY-165" value="" style="shape=tableRow;horizontal=0;startSize=0;swimlaneHead=0;swimlaneBody=0;fillColor=#dae8fc;collapsible=0;dropTarget=0;points=[[0,0.5],[1,0.5]];portConstraint=eastwest;top=0;left=0;right=0;bottom=1;strokeColor=#6c8ebf;" vertex="1" parent="wj5eM7WHxlM9F-lFhPUY-164">
          <mxGeometry y="30" width="180" height="30" as="geometry" />
        </mxCell>
        <mxCell id="wj5eM7WHxlM9F-lFhPUY-166" value="PK" style="shape=partialRectangle;connectable=0;fillColor=#dae8fc;top=0;left=0;bottom=0;right=0;fontStyle=1;overflow=hidden;whiteSpace=wrap;html=1;strokeColor=#6c8ebf;" vertex="1" parent="wj5eM7WHxlM9F-lFhPUY-165">
          <mxGeometry width="30" height="30" as="geometry">
            <mxRectangle width="30" height="30" as="alternateBounds" />
          </mxGeometry>
        </mxCell>
        <mxCell id="wj5eM7WHxlM9F-lFhPUY-167" value="Dnum" style="shape=partialRectangle;connectable=0;fillColor=#dae8fc;top=0;left=0;bottom=0;right=0;align=left;spacingLeft=6;fontStyle=5;overflow=hidden;whiteSpace=wrap;html=1;strokeColor=#6c8ebf;" vertex="1" parent="wj5eM7WHxlM9F-lFhPUY-165">
          <mxGeometry x="30" width="150" height="30" as="geometry">
            <mxRectangle width="150" height="30" as="alternateBounds" />
          </mxGeometry>
        </mxCell>
        <mxCell id="wj5eM7WHxlM9F-lFhPUY-168" value="" style="shape=tableRow;horizontal=0;startSize=0;swimlaneHead=0;swimlaneBody=0;fillColor=#dae8fc;collapsible=0;dropTarget=0;points=[[0,0.5],[1,0.5]];portConstraint=eastwest;top=0;left=0;right=0;bottom=0;strokeColor=#6c8ebf;" vertex="1" parent="wj5eM7WHxlM9F-lFhPUY-164">
          <mxGeometry y="60" width="180" height="30" as="geometry" />
        </mxCell>
        <mxCell id="wj5eM7WHxlM9F-lFhPUY-169" value="" style="shape=partialRectangle;connectable=0;fillColor=#dae8fc;top=0;left=0;bottom=0;right=0;editable=1;overflow=hidden;whiteSpace=wrap;html=1;strokeColor=#6c8ebf;" vertex="1" parent="wj5eM7WHxlM9F-lFhPUY-168">
          <mxGeometry width="30" height="30" as="geometry">
            <mxRectangle width="30" height="30" as="alternateBounds" />
          </mxGeometry>
        </mxCell>
        <mxCell id="wj5eM7WHxlM9F-lFhPUY-170" value="Dname" style="shape=partialRectangle;connectable=0;fillColor=#dae8fc;top=0;left=0;bottom=0;right=0;align=left;spacingLeft=6;overflow=hidden;whiteSpace=wrap;html=1;strokeColor=#6c8ebf;" vertex="1" parent="wj5eM7WHxlM9F-lFhPUY-168">
          <mxGeometry x="30" width="150" height="30" as="geometry">
            <mxRectangle width="150" height="30" as="alternateBounds" />
          </mxGeometry>
        </mxCell>
        <mxCell id="wj5eM7WHxlM9F-lFhPUY-208" value="" style="shape=tableRow;horizontal=0;startSize=0;swimlaneHead=0;swimlaneBody=0;fillColor=#dae8fc;collapsible=0;dropTarget=0;points=[[0,0.5],[1,0.5]];portConstraint=eastwest;top=0;left=0;right=0;bottom=0;strokeColor=#6c8ebf;" vertex="1" parent="wj5eM7WHxlM9F-lFhPUY-164">
          <mxGeometry y="90" width="180" height="30" as="geometry" />
        </mxCell>
        <mxCell id="wj5eM7WHxlM9F-lFhPUY-209" value="" style="shape=partialRectangle;connectable=0;fillColor=#dae8fc;top=0;left=0;bottom=0;right=0;editable=1;overflow=hidden;whiteSpace=wrap;html=1;strokeColor=#6c8ebf;" vertex="1" parent="wj5eM7WHxlM9F-lFhPUY-208">
          <mxGeometry width="30" height="30" as="geometry">
            <mxRectangle width="30" height="30" as="alternateBounds" />
          </mxGeometry>
        </mxCell>
        <mxCell id="wj5eM7WHxlM9F-lFhPUY-210" value="Hiring Date" style="shape=partialRectangle;connectable=0;fillColor=#dae8fc;top=0;left=0;bottom=0;right=0;align=left;spacingLeft=6;overflow=hidden;whiteSpace=wrap;html=1;strokeColor=#6c8ebf;" vertex="1" parent="wj5eM7WHxlM9F-lFhPUY-208">
          <mxGeometry x="30" width="150" height="30" as="geometry">
            <mxRectangle width="150" height="30" as="alternateBounds" />
          </mxGeometry>
        </mxCell>
        <mxCell id="wj5eM7WHxlM9F-lFhPUY-180" value="" style="shape=tableRow;horizontal=0;startSize=0;swimlaneHead=0;swimlaneBody=0;fillColor=#dae8fc;collapsible=0;dropTarget=0;points=[[0,0.5],[1,0.5]];portConstraint=eastwest;top=0;left=0;right=0;bottom=0;strokeColor=#6c8ebf;" vertex="1" parent="wj5eM7WHxlM9F-lFhPUY-164">
          <mxGeometry y="120" width="180" height="30" as="geometry" />
        </mxCell>
        <mxCell id="wj5eM7WHxlM9F-lFhPUY-181" value="" style="shape=partialRectangle;connectable=0;fillColor=#dae8fc;top=0;left=0;bottom=0;right=0;editable=1;overflow=hidden;whiteSpace=wrap;html=1;strokeColor=#6c8ebf;" vertex="1" parent="wj5eM7WHxlM9F-lFhPUY-180">
          <mxGeometry width="30" height="30" as="geometry">
            <mxRectangle width="30" height="30" as="alternateBounds" />
          </mxGeometry>
        </mxCell>
        <mxCell id="wj5eM7WHxlM9F-lFhPUY-182" value="&lt;font style=&quot;color: light-dark(rgb(247, 8, 8), rgb(0, 118, 0));&quot;&gt;&lt;b&gt;Emp-SSN&lt;/b&gt;&lt;/font&gt;" style="shape=partialRectangle;connectable=0;fillColor=#dae8fc;top=0;left=0;bottom=0;right=0;align=left;spacingLeft=6;overflow=hidden;whiteSpace=wrap;html=1;strokeColor=#6c8ebf;" vertex="1" parent="wj5eM7WHxlM9F-lFhPUY-180">
          <mxGeometry x="30" width="150" height="30" as="geometry">
            <mxRectangle width="150" height="30" as="alternateBounds" />
          </mxGeometry>
        </mxCell>
        <mxCell id="wj5eM7WHxlM9F-lFhPUY-213" style="edgeStyle=orthogonalEdgeStyle;rounded=0;orthogonalLoop=1;jettySize=auto;html=1;entryX=0;entryY=0.5;entryDx=0;entryDy=0;fillColor=#dae8fc;strokeColor=#6c8ebf;" edge="1" parent="1" source="wj5eM7WHxlM9F-lFhPUY-130" target="wj5eM7WHxlM9F-lFhPUY-165">
          <mxGeometry relative="1" as="geometry" />
        </mxCell>
        <mxCell id="wj5eM7WHxlM9F-lFhPUY-214" style="edgeStyle=orthogonalEdgeStyle;rounded=0;orthogonalLoop=1;jettySize=auto;html=1;entryX=1;entryY=0.5;entryDx=0;entryDy=0;fillColor=#dae8fc;strokeColor=#6c8ebf;" edge="1" parent="1" source="wj5eM7WHxlM9F-lFhPUY-180" target="wj5eM7WHxlM9F-lFhPUY-121">
          <mxGeometry relative="1" as="geometry">
            <Array as="points">
              <mxPoint x="-230" y="705" />
              <mxPoint x="-230" y="675" />
            </Array>
          </mxGeometry>
        </mxCell>
        <mxCell id="wj5eM7WHxlM9F-lFhPUY-215" style="edgeStyle=orthogonalEdgeStyle;rounded=0;orthogonalLoop=1;jettySize=auto;html=1;entryX=1;entryY=0.667;entryDx=0;entryDy=0;entryPerimeter=0;fillColor=#dae8fc;strokeColor=#6c8ebf;" edge="1" parent="1" source="wj5eM7WHxlM9F-lFhPUY-190" target="wj5eM7WHxlM9F-lFhPUY-165">
          <mxGeometry relative="1" as="geometry" />
        </mxCell>
        <mxCell id="wj5eM7WHxlM9F-lFhPUY-230" style="edgeStyle=orthogonalEdgeStyle;rounded=0;orthogonalLoop=1;jettySize=auto;html=1;entryX=0;entryY=0.5;entryDx=0;entryDy=0;exitX=1;exitY=0.5;exitDx=0;exitDy=0;fillColor=#dae8fc;strokeColor=#6c8ebf;" edge="1" parent="1" source="wj5eM7WHxlM9F-lFhPUY-227" target="wj5eM7WHxlM9F-lFhPUY-184">
          <mxGeometry relative="1" as="geometry">
            <Array as="points">
              <mxPoint x="-470" y="995" />
              <mxPoint x="-470" y="1000" />
              <mxPoint x="-360" y="1000" />
              <mxPoint x="-360" y="985" />
            </Array>
          </mxGeometry>
        </mxCell>
        <mxCell id="wj5eM7WHxlM9F-lFhPUY-217" value="Emp_Projects" style="shape=table;startSize=30;container=1;collapsible=1;childLayout=tableLayout;fixedRows=1;rowLines=0;fontStyle=1;align=center;resizeLast=1;html=1;strokeWidth=2;fillColor=#97D077;strokeColor=#6c8ebf;" vertex="1" parent="1">
          <mxGeometry x="-660" y="885" width="180" height="160" as="geometry" />
        </mxCell>
        <mxCell id="wj5eM7WHxlM9F-lFhPUY-218" value="" style="shape=tableRow;horizontal=0;startSize=0;swimlaneHead=0;swimlaneBody=0;fillColor=#dae8fc;collapsible=0;dropTarget=0;points=[[0,0.5],[1,0.5]];portConstraint=eastwest;top=0;left=0;right=0;bottom=1;strokeColor=#6c8ebf;" vertex="1" parent="wj5eM7WHxlM9F-lFhPUY-217">
          <mxGeometry y="30" width="180" height="30" as="geometry" />
        </mxCell>
        <mxCell id="wj5eM7WHxlM9F-lFhPUY-219" value="PK" style="shape=partialRectangle;connectable=0;fillColor=#dae8fc;top=0;left=0;bottom=0;right=0;fontStyle=1;overflow=hidden;whiteSpace=wrap;html=1;strokeColor=#6c8ebf;" vertex="1" parent="wj5eM7WHxlM9F-lFhPUY-218">
          <mxGeometry width="30" height="30" as="geometry">
            <mxRectangle width="30" height="30" as="alternateBounds" />
          </mxGeometry>
        </mxCell>
        <mxCell id="wj5eM7WHxlM9F-lFhPUY-220" value="Pnum" style="shape=partialRectangle;connectable=0;fillColor=#dae8fc;top=0;left=0;bottom=0;right=0;align=left;spacingLeft=6;fontStyle=5;overflow=hidden;whiteSpace=wrap;html=1;strokeColor=#6c8ebf;" vertex="1" parent="wj5eM7WHxlM9F-lFhPUY-218">
          <mxGeometry x="30" width="150" height="30" as="geometry">
            <mxRectangle width="150" height="30" as="alternateBounds" />
          </mxGeometry>
        </mxCell>
        <mxCell id="wj5eM7WHxlM9F-lFhPUY-224" value="" style="shape=tableRow;horizontal=0;startSize=0;swimlaneHead=0;swimlaneBody=0;fillColor=#dae8fc;collapsible=0;dropTarget=0;points=[[0,0.5],[1,0.5]];portConstraint=eastwest;top=0;left=0;right=0;bottom=0;strokeColor=#6c8ebf;" vertex="1" parent="wj5eM7WHxlM9F-lFhPUY-217">
          <mxGeometry y="60" width="180" height="30" as="geometry" />
        </mxCell>
        <mxCell id="wj5eM7WHxlM9F-lFhPUY-225" value="" style="shape=partialRectangle;connectable=0;fillColor=#dae8fc;top=0;left=0;bottom=0;right=0;editable=1;overflow=hidden;whiteSpace=wrap;html=1;strokeColor=#6c8ebf;" vertex="1" parent="wj5eM7WHxlM9F-lFhPUY-224">
          <mxGeometry width="30" height="30" as="geometry">
            <mxRectangle width="30" height="30" as="alternateBounds" />
          </mxGeometry>
        </mxCell>
        <mxCell id="wj5eM7WHxlM9F-lFhPUY-226" value="&lt;span style=&quot;font-size: 13px; text-align: center;&quot;&gt;WorkingHours&lt;/span&gt;" style="shape=partialRectangle;connectable=0;fillColor=#dae8fc;top=0;left=0;bottom=0;right=0;align=left;spacingLeft=6;overflow=hidden;whiteSpace=wrap;html=1;strokeColor=#6c8ebf;" vertex="1" parent="wj5eM7WHxlM9F-lFhPUY-224">
          <mxGeometry x="30" width="150" height="30" as="geometry">
            <mxRectangle width="150" height="30" as="alternateBounds" />
          </mxGeometry>
        </mxCell>
        <mxCell id="wj5eM7WHxlM9F-lFhPUY-227" value="" style="shape=tableRow;horizontal=0;startSize=0;swimlaneHead=0;swimlaneBody=0;fillColor=#dae8fc;collapsible=0;dropTarget=0;points=[[0,0.5],[1,0.5]];portConstraint=eastwest;top=0;left=0;right=0;bottom=0;strokeColor=#6c8ebf;" vertex="1" parent="wj5eM7WHxlM9F-lFhPUY-217">
          <mxGeometry y="90" width="180" height="40" as="geometry" />
        </mxCell>
        <mxCell id="wj5eM7WHxlM9F-lFhPUY-228" value="" style="shape=partialRectangle;connectable=0;fillColor=#dae8fc;top=0;left=0;bottom=0;right=0;editable=1;overflow=hidden;whiteSpace=wrap;html=1;strokeColor=#6c8ebf;" vertex="1" parent="wj5eM7WHxlM9F-lFhPUY-227">
          <mxGeometry width="30" height="40" as="geometry">
            <mxRectangle width="30" height="40" as="alternateBounds" />
          </mxGeometry>
        </mxCell>
        <mxCell id="wj5eM7WHxlM9F-lFhPUY-229" value="&lt;font style=&quot;color: light-dark(rgb(247, 8, 8), rgb(0, 118, 0));&quot;&gt;&lt;b&gt;Pnum&lt;/b&gt;&lt;/font&gt;" style="shape=partialRectangle;connectable=0;fillColor=#dae8fc;top=0;left=0;bottom=0;right=0;align=left;spacingLeft=6;overflow=hidden;whiteSpace=wrap;html=1;strokeColor=#6c8ebf;" vertex="1" parent="wj5eM7WHxlM9F-lFhPUY-227">
          <mxGeometry x="30" width="150" height="40" as="geometry">
            <mxRectangle width="150" height="40" as="alternateBounds" />
          </mxGeometry>
        </mxCell>
        <mxCell id="wj5eM7WHxlM9F-lFhPUY-234" value="" style="shape=tableRow;horizontal=0;startSize=0;swimlaneHead=0;swimlaneBody=0;fillColor=#dae8fc;collapsible=0;dropTarget=0;points=[[0,0.5],[1,0.5]];portConstraint=eastwest;top=0;left=0;right=0;bottom=0;strokeColor=#6c8ebf;" vertex="1" parent="wj5eM7WHxlM9F-lFhPUY-217">
          <mxGeometry y="130" width="180" height="30" as="geometry" />
        </mxCell>
        <mxCell id="wj5eM7WHxlM9F-lFhPUY-235" value="" style="shape=partialRectangle;connectable=0;fillColor=#dae8fc;top=0;left=0;bottom=0;right=0;editable=1;overflow=hidden;whiteSpace=wrap;html=1;strokeColor=#6c8ebf;" vertex="1" parent="wj5eM7WHxlM9F-lFhPUY-234">
          <mxGeometry width="30" height="30" as="geometry">
            <mxRectangle width="30" height="30" as="alternateBounds" />
          </mxGeometry>
        </mxCell>
        <mxCell id="wj5eM7WHxlM9F-lFhPUY-236" value="&lt;font style=&quot;color: light-dark(rgb(247, 8, 8), rgb(0, 118, 0));&quot;&gt;&lt;b&gt;Emp-SSN&lt;/b&gt;&lt;/font&gt;" style="shape=partialRectangle;connectable=0;fillColor=#dae8fc;top=0;left=0;bottom=0;right=0;align=left;spacingLeft=6;overflow=hidden;whiteSpace=wrap;html=1;strokeColor=#6c8ebf;" vertex="1" parent="wj5eM7WHxlM9F-lFhPUY-234">
          <mxGeometry x="30" width="150" height="30" as="geometry">
            <mxRectangle width="150" height="30" as="alternateBounds" />
          </mxGeometry>
        </mxCell>
        <mxCell id="wj5eM7WHxlM9F-lFhPUY-231" style="edgeStyle=orthogonalEdgeStyle;rounded=0;orthogonalLoop=1;jettySize=auto;html=1;entryX=-0.001;entryY=0.782;entryDx=0;entryDy=0;entryPerimeter=0;fillColor=#dae8fc;strokeColor=#6c8ebf;" edge="1" parent="1" source="wj5eM7WHxlM9F-lFhPUY-224" target="wj5eM7WHxlM9F-lFhPUY-121">
          <mxGeometry relative="1" as="geometry" />
        </mxCell>
        <mxCell id="wj5eM7WHxlM9F-lFhPUY-233" style="edgeStyle=orthogonalEdgeStyle;rounded=0;orthogonalLoop=1;jettySize=auto;html=1;entryX=0.012;entryY=0.273;entryDx=0;entryDy=0;entryPerimeter=0;fillColor=#dae8fc;strokeColor=#6c8ebf;" edge="1" parent="1" source="wj5eM7WHxlM9F-lFhPUY-114" target="wj5eM7WHxlM9F-lFhPUY-121">
          <mxGeometry relative="1" as="geometry" />
        </mxCell>
      </root>
    </mxGraphModel>
  </diagram>
</mxfile>
